:SAMPLES-PER-SECOND 30
:FULLY-SPECIFIED
:DEGREES
251
root  -9.41218 40.3948 -14.8649 34.4113 89.291 34.3271
RightUpLeg  -10.92 -9.98308 -3.63903
RightLeg  21.3328 -3.69082 -1.82087
RightFoot  -7.95566 -0.156212 3.46046
RightToes  0.00048216 0.542163 -0.142577
Spine  7.92349 0.119745 2.74597
Spine1  6.24742 0.553786 -1.63631
HEad  7.27074 0.379502 -2.35667
LeftShoulder1  8.11853 -11.9377 -45.842
LeftArm  -12.7159 15.108 -24.3637
LeftForeArm  25.1805 -31.2245 -5.42203
LeftHand  -0.25398 0.0180481 5.50724
RightShoulder  5.42935 9.46113 35.8985
RightArm  -8.90504 -26.932 35.6658
RightForeArm  10.9329 11.5558 6.12367
RightHand  -0.350624 -2.02483 -11.7102
LeftUpLeg  3.07869 5.5188 -0.406614
LeftLeg  9.40624 12.8246 -2.20683
LeftFoot  -13.6022 0.0767778 -0.493449
LeftToes  1.06243e-005 4.65856e-005 -8.18503e-006
252
root  -9.47873 40.3916 -14.9832 34.3026 89.3102 34.375
RightUpLeg  -8.40527 -9.05562 -4.53793
RightLeg  18.7239 -0.856615 -0.500686
RightFoot  -8.50179 -0.143148 3.43127
RightToes  0.00048216 0.542163 -0.142577
Spine  6.67933 -0.119535 2.7768
Spine1  6.73197 0.152003 -0.997659
HEad  7.10054 1.03591 -2.56588
LeftShoulder1  8.28919 -12.0992 -46.3366
LeftArm  -9.99077 16.6586 -24.3863
LeftForeArm  21.7463 -26.6862 -4.53905
LeftHand  -0.25398 0.0180481 5.50724
RightShoulder  5.33947 9.27017 35.823
RightArm  -6.25989 -24.5737 35.012
RightForeArm  8.89251 14.6572 5.85389
RightHand  -0.500221 -1.04704 -13.2119
LeftUpLeg  3.15864 5.45084 -0.920647
LeftLeg  9.37366 12.9147 -1.81888
LeftFoot  -14.0666 0.0722148 -0.499798
LeftToes  1.06243e-005 4.65856e-005 -8.18503e-006
253
root  -9.49704 40.4252 -15.117 19.3656 89.1499 19.6898
RightUpLeg  -6.47799 -8.94517 -4.93677
RightLeg  16.0231 0.952161 0.423692
RightFoot  -8.87103 -0.12511 3.022
RightToes  0.00048216 0.542163 -0.142577
Spine  5.56274 -0.32668 3.80259
Spine1  7.2073 0.0362584 -1.20049
HEad  7.23571 1.54298 -2.67055
LeftShoulder1  8.49789 -12.317 -46.8635
LeftArm  -6.36233 17.8963 -24.3257
LeftForeArm  18.2093 -21.3489 -4.05201
LeftHand  -0.25398 0.0180481 5.50724
RightShoulder  5.29433 9.13579 35.908
RightArm  -5.10543 -22.0616 34.6675
RightForeArm  4.97505 17.318 5.41295
RightHand  -0.683243 0.0309033 -14.6432
LeftUpLeg  3.55172 5.37734 -1.23786
LeftLeg  9.14138 13.3663 -1.33109
LeftFoot  -14.3737 0.0717407 -0.545955
LeftToes  1.06243e-005 4.65856e-005 -8.18503e-006
254
root  -9.5024 40.4585 -15.2637 -9.25676 87.9832 -8.5901
RightUpLeg  -5.77507 -8.5579 -4.71207
RightLeg  14.7835 1.49443 0.830511
RightFoot  -8.29604 -0.130417 2.77889
RightToes  0.00048216 0.542163 -0.142577
Spine  5.13717 -0.161649 5.61503
Spine1  7.07033 0.473789 -2.07373
HEad  7.91731 1.89457 -2.7577
LeftShoulder1  8.68045 -12.5277 -47.251
LeftArm  -6.21568 19.1319 -24.617
LeftForeArm  18.8404 -15.5144 -4.99856
LeftHand  -0.25398 0.0180481 5.50724
RightShoulder  5.27785 9.10436 35.8824
RightArm  -4.65588 -19.4533 34.4142
RightForeArm  0.894395 19.3594 5.16939
RightHand  -0.788572 0.61681 -15.3023
LeftUpLeg  4.00829 5.51435 -1.18398
LeftLeg  9.21859 14.362 -0.841745
LeftFoot  -14.958 0.0681017 -0.683644
LeftToes  1.06243e-005 4.65856e-005 -8.18503e-006
255
root  -9.51805 40.4454 -15.3857 -12.9754 86.0706 -11.934
RightUpLeg  -5.91899 -7.6045 -4.16523
RightLeg  15.0172 1.90417 0.773359
RightFoot  -7.54794 -0.147943 2.9183
RightToes  0.00048216 0.542163 -0.142577
Spine  5.47362 0.207923 6.75397
Spine1  6.32881 0.977576 -2.51038
HEad  8.7803 2.51986 -2.85578
LeftShoulder1  8.74444 -12.6787 -47.1538
LeftArm  -8.56558 20.9188 -25.9095
LeftForeArm  21.8953 -10.5869 -5.70196
LeftHand  -0.25398 0.0180481 5.50724
RightShoulder  5.25726 9.16862 35.5159
RightArm  -3.70322 -16.6621 34.2064
RightForeArm  -1.91848 21.4398 5.06705
RightHand  -0.751194 0.431571 -15.0117
LeftUpLeg  4.30537 5.8752 -0.983091
LeftLeg  9.76846 15.6353 -0.451666
LeftFoot  -15.9241 0.0640789 -0.786804
LeftToes  1.06243e-005 4.65856e-005 -8.18503e-006
256
root  -9.5431 40.3738 -15.4549 -10.9305 84.5541 -9.46368
RightUpLeg  -6.28399 -6.26806 -3.97001
RightLeg  16.0666 2.40792 0.68034
RightFoot  -7.71184 -0.15073 3.10496
RightToes  0.00048216 0.542163 -0.142577
Spine  6.10058 0.368381 6.14238
Spine1  5.7363 0.946815 -1.8399
HEad  9.1429 3.64769 -2.80855
LeftShoulder1  8.78301 -12.8751 -46.7869
LeftArm  -9.59542 23.2943 -27.861
LeftForeArm  23.5804 -7.98189 -5.53907
LeftHand  -0.25398 0.0180481 5.50724
RightShoulder  5.2352 9.24942 35.0876
RightArm  -2.49682 -13.491 33.9394
RightForeArm  -2.65264 24.1407 5.27266
RightHand  -0.671467 -0.0138298 -14.5012
LeftUpLeg  4.47424 6.41226 -0.951158
LeftLeg  10.6565 16.549 -0.203631
LeftFoot  -16.9168 0.0575711 -0.900899
LeftToes  1.06243e-005 4.65856e-005 -8.18503e-006
257
root  -9.56062 40.2647 -15.4849 -7.0685 83.6667 -5.11507
RightUpLeg  -7.08183 -5.18163 -4.29494
RightLeg  18.1706 2.55467 0.724143
RightFoot  -8.28098 -0.14446 3.32
RightToes  0.00048216 0.542163 -0.142577
Spine  6.64723 0.256255 4.39522
Spine1  5.79782 0.487903 -0.741299
HEad  8.80264 4.92105 -2.45179
LeftShoulder1  8.97151 -13.2343 -46.7646
LeftArm  -9.1586 25.6141 -29.2417
LeftForeArm  24.6641 -7.37358 -5.61352
LeftHand  -0.25398 0.0180481 5.50724
RightShoulder  5.23638 9.25333 35.0847
RightArm  -1.79534 -9.98708 33.5103
RightForeArm  -1.48915 27.274 5.95665
RightHand  -0.671704 -0.025717 -14.5308
LeftUpLeg  4.65561 7.08306 -1.14096
LeftLeg  11.654 16.855 -0.10313
LeftFoot  -17.7983 0.0387208 -1.20315
LeftToes  1.06243e-005 4.65856e-005 -8.18503e-006
258
root  -9.5461 40.1375 -15.5055 -3.0661 82.6143 -0.609909
RightUpLeg  -8.95755 -3.92394 -4.74805
RightLeg  22.0911 1.56896 0.470652
RightFoot  -7.73928 -0.18547 4.16678
RightToes  0.00048216 0.542163 -0.142577
Spine  7.19205 0.23492 2.88486
Spine1  6.20576 0.268124 -0.292892
HEad  8.23278 5.83905 -1.9113
LeftShoulder1  9.26587 -13.6493 -47.1407
LeftArm  -7.90621 27.2021 -29.7381
LeftForeArm  26.0714 -7.50897 -6.06449
LeftHand  -0.25398 0.0180481 5.50724
RightShoulder  5.28002 9.23558 35.4767
RightArm  -1.20751 -6.76062 33.1138
RightForeArm  -0.178306 30.3475 6.63699
RightHand  -0.764341 0.455254 -15.2115
LeftUpLeg  4.93836 7.73451 -1.44703
LeftLeg  12.5922 17.2404 -0.0646613
LeftFoot  -18.7732 0.0013756 -1.70912
LeftToes  1.06243e-005 4.65856e-005 -8.18503e-006
259
root  -9.47532 40.0028 -15.5303 -0.703186 80.8337 2.23628
RightUpLeg  -11.8597 -1.9138 -4.99566
RightLeg  27.4197 -0.140529 -0.308972
RightFoot  -5.84536 -0.322242 5.83914
RightToes  0.00048216 0.542163 -0.142577
Spine  7.90468 0.545565 2.24493
Spine1  6.44747 0.641487 -0.740625
HEad  7.93062 6.36154 -1.48818
LeftShoulder1  9.44044 -13.8806 -47.3958
LeftArm  -6.97235 27.8761 -30.0936
LeftForeArm  27.5594 -7.4782 -6.39782
LeftHand  -0.25398 0.0180481 5.50724
RightShoulder  5.37024 9.35412 35.79
RightArm  -0.924551 -4.49301 33.0191
RightForeArm  0.638189 32.9954 7.28049
RightHand  -0.888021 1.00096 -16.2019
LeftUpLeg  5.35296 8.21967 -1.79459
LeftLeg  13.408 18.4382 0.0529945
LeftFoot  -19.815 -0.0427415 -2.18274
LeftToes  1.06243e-005 4.65856e-005 -8.18503e-006
260
root  -9.33012 39.8839 -15.5601 -0.240097 78.798 3.10841
RightUpLeg  -14.9649 -0.0402706 -4.90972
RightLeg  32.2427 -0.943274 -0.867599
RightFoot  -4.0565 -0.501494 7.45919
RightToes  0.00048216 0.542163 -0.142577
Spine  8.72099 0.934312 2.32671
Spine1  6.42698 1.26209 -1.66381
HEad  7.97118 6.82174 -1.26781
LeftShoulder1  9.41705 -13.854 -47.3494
LeftArm  -7.03011 27.8416 -30.6328
LeftForeArm  28.3658 -7.19511 -6.39521
LeftHand  -0.25398 0.0180481 5.50724
RightShoulder  5.48976 9.62007 35.8529
RightArm  -0.626173 -3.20722 33.2977
RightForeArm  0.670433 34.9836 7.82614
RightHand  -0.976856 1.27295 -17.1012
LeftUpLeg  5.8593 8.59663 -2.06716
LeftLeg  14.0792 20.0877 0.287961
LeftFoot  -20.6111 -0.069712 -2.38668
LeftToes  1.06243e-005 4.65856e-005 -8.18503e-006
261
root  -9.10307 39.8149 -15.5919 -1.07149 77.383 2.47639
RightUpLeg  -17.5286 0.308526 -4.32223
RightLeg  34.5169 -0.392589 -0.542427
RightFoot  -3.44148 -0.576043 7.99589
RightToes  0.00048216 0.542163 -0.142577
Spine  9.42662 0.99261 2.86296
Spine1  6.27219 1.59727 -2.6063
HEad  8.26164 7.37956 -1.08726
LeftShoulder1  9.36048 -13.7431 -47.368
LeftArm  -7.32515 27.3468 -30.8089
LeftForeArm  28.2174 -7.0183 -6.30565
LeftHand  -0.25398 0.0180481 5.50724
RightShoulder  5.58947 9.84356 35.8981
RightArm  0.103208 -2.42006 33.8256
RightForeArm  0.311044 35.9554 8.12625
RightHand  -1.00168 1.25295 -17.5735
LeftUpLeg  6.37866 8.8611 -2.10639
LeftLeg  14.4361 21.2547 0.520098
LeftFoot  -21.0681 -0.0811632 -2.43868
LeftToes  1.06243e-005 4.65856e-005 -8.18503e-006
262
root  -8.79694 39.7877 -15.6065 -2.51138 76.8788 0.939865
RightUpLeg  -19.3598 -0.961197 -3.22158
RightLeg  33.4205 0.2431 -0.0732363
RightFoot  -3.55016 -0.55284 7.75007
RightToes  0.00048216 0.542163 -0.142577
Spine  9.94083 0.691908 3.44923
Spine1  5.99536 1.49745 -3.2049
HEad  8.7751 7.85992 -0.89923
LeftShoulder1  9.40602 -13.7381 -47.6162
LeftArm  -7.05567 26.5075 -30.3399
LeftForeArm  27.8097 -7.13488 -6.40712
LeftHand  -0.25398 0.0180481 5.50724
RightShoulder  5.62072 9.88434 36.0016
RightArm  1.3132 -1.90116 34.4935
RightForeArm  0.214703 35.7518 8.07397
RightHand  -0.985935 1.16573 -17.5207
LeftUpLeg  6.82634 8.81246 -1.94781
LeftLeg  14.4382 21.7069 0.692173
LeftFoot  -21.4495 -0.10775 -2.67179
LeftToes  1.06243e-005 4.65856e-005 -8.18503e-006
263
root  -8.42208 39.7667 -15.5842 -4.03215 76.8943 -0.852219
RightUpLeg  -20.545 -2.76434 -1.83276
RightLeg  29.3882 -0.0939544 -0.274527
RightFoot  -3.75996 -0.532826 7.64331
RightToes  0.00048216 0.542163 -0.142577
Spine  10.4134 0.345908 3.65623
Spine1  5.63417 1.18299 -3.17665
HEad  9.34232 8.09187 -0.843048
LeftShoulder1  9.48082 -13.8195 -47.7723
LeftArm  -6.46061 25.3327 -29.7371
LeftForeArm  27.856 -7.63274 -6.6074
LeftHand  -0.25398 0.0180481 5.50724
RightShoulder  5.59957 9.83955 35.9844
RightArm  2.65842 -1.87749 35.1902
RightForeArm  0.515966 34.7246 7.7633
RightHand  -0.974234 1.2171 -17.19
LeftUpLeg  7.29165 8.45508 -1.72886
LeftLeg  14.2001 21.9479 0.81436
LeftFoot  -21.8322 -0.142001 -2.97359
LeftToes  1.06243e-005 4.65856e-005 -8.18503e-006
